<svg width="24" height="25" viewBox="0 0 24 25" fill="none" xmlns="http://www.w3.org/2000/svg">
<g filter="url(#filter0_d_153_9695)">
<path fill-rule="evenodd" clip-rule="evenodd" d="M8.4298 14.0747L7.40582 12.5101C6.70664 11.4419 5.21734 11.0521 4.07816 11.6378L4.3436 11.5013C4.06089 11.6466 3.92533 12.009 4.04173 12.3101L5.45914 15.9773C5.68384 16.5587 6.25773 17.3809 6.73327 17.7939C6.73327 17.7939 9.58473 20.1541 9.58473 21.039V22.1592H14.2045H15.4677H16.5143H17.6692V21.039C17.6692 20.1541 19.4119 17.367 19.4119 17.367C19.7326 16.8253 20 15.8709 20 15.2372V10.5773C19.9791 9.54564 19.1021 8.70951 18.02 8.70951C17.4787 8.70951 17.0402 9.12758 17.0402 9.64371V10.0169C17.0402 8.98523 16.1632 8.14911 15.0811 8.14911C14.5397 8.14911 14.1012 8.56717 14.1012 9.0833V9.45653C14.1012 8.42483 13.2243 7.58871 12.1421 7.58871C11.6008 7.58871 11.1623 8.00677 11.1623 8.5229V8.89613C11.1623 8.73032 11.1446 8.59852 11.1103 8.49406L10.8115 3.68172C10.7711 3.03097 10.2226 2.52539 9.58473 2.52539C8.94243 2.52539 8.4298 3.04237 8.4298 3.6801V8.30005V14.0747Z" fill="white"/>
<path d="M7.8298 12.0681C6.99206 10.9087 5.39896 10.4593 4.07606 10.9809L4.06927 10.9677L3.80384 11.1041C3.80384 11.1041 3.80383 11.1041 3.80383 11.1041L3.82111 11.1378C3.43909 11.4772 3.29392 12.0396 3.48207 12.5264L4.89949 16.1937C5.15908 16.8653 5.78961 17.7691 6.33983 18.2469L6.34521 18.2516L6.35065 18.2561L6.35067 18.2561L6.3507 18.2562L6.35089 18.2563L6.35209 18.2573L6.35751 18.2618L6.37991 18.2805C6.3998 18.2972 6.42938 18.3221 6.46724 18.3543C6.54301 18.4187 6.6518 18.5121 6.78258 18.6271C7.04476 18.8577 7.39242 19.1725 7.73842 19.5125C8.08707 19.8552 8.42147 20.2113 8.66454 20.5257C8.78638 20.6832 8.87488 20.817 8.93042 20.9233C8.97414 21.007 8.98318 21.0468 8.98473 21.0512V22.1592V22.7592H9.58473H14.2045H15.4677H16.5143H17.6692H18.2692V22.1592V21.039C18.2692 20.9542 18.3281 20.7176 18.494 20.3259C18.6469 19.965 18.8548 19.5523 19.0686 19.1561C19.2813 18.7618 19.4948 18.3933 19.6555 18.1227C19.7357 17.9876 19.8024 17.8775 19.8489 17.8015C19.8721 17.7635 19.8903 17.734 19.9025 17.7142L19.9163 17.692L19.9197 17.6866L19.9205 17.6853L19.9206 17.6851L19.9206 17.6851L19.9206 17.6851L19.9244 17.679L19.9281 17.6727C20.1239 17.3422 20.2885 16.9146 20.4044 16.497C20.5201 16.0797 20.6 15.626 20.6 15.2372V10.5773H20.6001L20.5999 10.5652C20.572 9.18762 19.4091 8.10951 18.02 8.10951C17.6592 8.10951 17.3185 8.22976 17.0466 8.43557C16.5726 7.89003 15.8606 7.54911 15.0811 7.54911C14.7202 7.54911 14.3796 7.66935 14.1077 7.87517C13.6337 7.32962 12.9217 6.98871 12.1421 6.98871C11.9622 6.98871 11.7872 7.01862 11.6233 7.07414L11.4103 3.64453C11.3501 2.67534 10.5374 1.92539 9.58473 1.92539C8.60966 1.92539 7.8298 2.7124 7.8298 3.6801V8.30005V12.0681Z" stroke="black" stroke-width="1.2"/>
</g>
<defs>
<filter id="filter0_d_153_9695" x="-0.199707" y="-0.673828" width="24.3999" height="28.0332" filterUnits="userSpaceOnUse" color-interpolation-filters="sRGB">
<feFlood flood-opacity="0" result="BackgroundImageFix"/>
<feColorMatrix in="SourceAlpha" type="matrix" values="0 0 0 0 0 0 0 0 0 0 0 0 0 0 0 0 0 0 127 0" result="hardAlpha"/>
<feOffset dy="1"/>
<feGaussianBlur stdDeviation="1.5"/>
<feColorMatrix type="matrix" values="0 0 0 0 0 0 0 0 0 0 0 0 0 0 0 0 0 0 0.2 0"/>
<feBlend mode="normal" in2="BackgroundImageFix" result="effect1_dropShadow_153_9695"/>
<feBlend mode="normal" in="SourceGraphic" in2="effect1_dropShadow_153_9695" result="shape"/>
</filter>
</defs>
</svg>
