<svg width="141" height="81" viewBox="0 0 141 81" fill="none" xmlns="http://www.w3.org/2000/svg">
<path d="M39.6438 34.7645L23.8826 0H15.6869L0.111254 34.4714L0 34.7645H8.71494L11.793 27.4013H27.6653L30.7434 34.7645H39.6438ZM24.9581 20.9539H14.5372L19.7662 8.53541L24.9581 20.9539Z" fill="#808080"/>
<path d="M56.5372 34.84L67.7918 8H59.9839L52.5425 25.6733L45.3578 8H37L48.2222 34.84H56.5372Z" fill="#808080"/>
<path d="M92.1411 10.97C89.9044 8.98995 86.7157 8 82.5735 8C80.4474 8 78.3214 8.29336 76.3052 8.84335C74.2888 9.39334 72.5293 10.2 71.063 11.2266L70.9164 11.3367L73.849 17.0566L74.0322 16.91C74.9486 16.1766 76.0847 15.59 77.4416 15.15C78.7609 14.71 80.1539 14.4899 81.5469 14.4899C83.5262 14.4899 84.9923 14.93 85.9827 15.7733C86.8986 16.5799 87.4118 17.79 87.4487 19.2933H81.5469C77.6613 19.2933 74.7287 20.0266 72.8592 21.4566C70.9531 22.8866 70 24.9033 70 27.3966C70 28.9732 70.4032 30.4032 71.2096 31.6499C72.0161 32.8966 73.1891 33.8866 74.6921 34.5833C76.1953 35.2799 77.991 35.6466 80.044 35.6466C83.7099 35.6466 86.3492 34.5833 87.8882 32.4199V35.2432H95.4766V19.9533C95.4766 15.9933 94.3402 12.95 92.1411 10.97ZM85.3595 29.1932C84.3691 29.7799 83.2335 30.0732 81.9865 30.0732C80.704 30.0732 79.6775 29.7799 78.9445 29.2666C78.2115 28.7166 77.8811 28.0199 77.8811 27.1033C77.8811 25.16 79.3471 24.2066 82.3898 24.2066H87.4119V26.6633C87.0085 27.7632 86.3123 28.6066 85.3595 29.1932Z" fill="#808080"/>
<path fill-rule="evenodd" clip-rule="evenodd" d="M3.61245e-07 43H8.35776V71.5437H34.7965V79.9012H8.35776V79.911H3.61245e-07V79.9012L0 71.5437L3.61245e-07 43Z" fill="#808080"/>
<path d="M61.1408 54.9699C58.9047 52.9899 55.7156 52 51.5733 52C49.4473 52 47.3211 52.2933 45.305 52.8433C43.2888 53.3933 41.5294 54.2 40.063 55.2266L39.9164 55.3366L42.849 61.0566L43.0323 60.9099C43.9487 60.1766 45.085 59.5899 46.4414 59.15C47.761 58.7099 49.154 58.4899 50.5469 58.4899C52.5264 58.4899 53.9927 58.9299 54.9825 59.7732C55.8989 60.5799 56.4121 61.7899 56.4487 63.2932H50.5469C46.6613 63.2932 43.7287 64.0266 41.8592 65.4566C39.9531 66.8865 39 68.9032 39 71.3965C39 72.9732 39.4032 74.4032 40.2097 75.6497C41.0162 76.8967 42.1892 77.8864 43.6921 78.5833C45.1951 79.2801 46.9912 79.6467 49.044 79.6467C52.7097 79.6467 55.349 78.5833 56.8886 76.4196V79.2433H64.4766V63.9533C64.4766 59.9932 63.3769 56.9499 61.1408 54.9699ZM54.3592 73.1932C53.3695 73.7799 52.2332 74.0732 50.9868 74.0732C49.7038 74.0732 48.6774 73.7799 47.9443 73.2665C47.2112 72.7165 46.8812 72.0199 46.8812 71.1032C46.8812 69.1599 48.3475 68.2065 51.3901 68.2065H56.4487V70.6632C56.0088 71.7632 55.3123 72.6065 54.3592 73.1932Z" fill="#808080"/>
<path d="M93.654 54.3666C91.6009 53.23 89.3289 52.6433 86.8356 52.6433C83.61 52.6433 81.0075 53.6333 79.0643 55.54V43H71V79.8501H78.7347V77.1363C80.641 79.1901 83.3902 80.2535 86.8356 80.2535C89.3289 80.2535 91.6009 79.6665 93.654 78.5301C95.7071 77.3929 97.3199 75.7433 98.4563 73.6899C99.6288 71.6365 100.216 69.1799 100.216 66.4299C100.216 63.6799 99.6288 61.2599 98.4563 59.1699C97.283 57.1533 95.6702 55.5033 93.654 54.3666ZM85.5163 59.3533C87.4226 59.3533 88.9985 60.0133 90.2079 61.2966C91.4181 62.5799 92.0412 64.3399 92.0412 66.5032C92.0412 68.6665 91.4181 70.4265 90.2079 71.7099C88.9985 72.9932 87.4226 73.6532 85.5163 73.6532C83.61 73.6532 82.0341 72.9932 80.8239 71.7099C79.6145 70.4265 78.9913 68.6665 78.9913 66.5032C78.9913 64.3399 79.6145 62.5799 80.8239 61.2966C82.0341 60.0133 83.61 59.3533 85.5163 59.3533Z" fill="#808080"/>
<path d="M125.727 66.3732C124.701 65.2732 123.455 64.5033 122.062 64.0999C120.669 63.6966 118.91 63.2932 116.747 62.9266C114.84 62.6332 113.411 62.3399 112.568 62.0099C111.762 61.7166 111.358 61.2032 111.358 60.4699C111.358 59.8099 111.725 59.2966 112.495 58.8932C113.265 58.4533 114.474 58.2333 116.087 58.2333C118.799 58.2333 121.329 58.8932 123.601 60.1766L123.785 60.2866L126.497 54.4566L126.351 54.3466C125.141 53.6133 123.565 53.0266 121.695 52.6233C119.826 52.22 117.956 52 116.087 52C113.557 52 111.321 52.3667 109.452 53.1C107.583 53.8333 106.116 54.86 105.126 56.1799C104.136 57.4999 103.623 59.0399 103.623 60.7633C103.623 62.8166 104.173 64.3932 105.237 65.5299C106.299 66.6299 107.546 67.3999 108.976 67.8399C110.369 68.2799 112.201 68.6465 114.364 68.9766C116.16 69.1965 117.517 69.4899 118.396 69.7833C119.202 70.0765 119.606 70.5532 119.606 71.2132C119.606 72.6799 118.03 73.4132 114.95 73.4132C113.374 73.4132 111.725 73.1932 110.112 72.7165C108.462 72.2398 107.032 71.6532 105.896 70.8832L105.713 70.7732L103 76.6401L103.147 76.75C104.393 77.5928 106.116 78.2897 108.206 78.803C110.295 79.3532 112.495 79.6098 114.694 79.6098C117.296 79.6098 119.569 79.2433 121.475 78.5464C123.382 77.8502 124.848 76.823 125.874 75.5029C126.864 74.1832 127.377 72.6799 127.377 70.9932C127.304 69.0499 126.754 67.4733 125.727 66.3732Z" fill="#808080"/>
<path d="M140.065 72H132V80.0668H140.065V72Z" fill="#808080"/>
</svg>
