<svg width="356" height="80" viewBox="0 0 356 80" fill="none" xmlns="http://www.w3.org/2000/svg">
<g clip-path="url(#clip0_5_51)">
<path d="M90.524 60.7036C78.8172 60.7036 72.0256 52.349 72.0256 39.8171C72.0256 27.2295 79.2594 19.223 90.8548 19.223C99.7455 19.223 106.095 24.3019 107.696 33.2448H100.95C99.735 27.8352 95.8154 24.9633 90.625 24.9633C84.2756 24.9633 79.2489 30.1571 79.2489 39.8171C79.2489 49.5363 84.1641 54.9458 90.5694 54.9458C95.9789 54.9458 99.8465 52.1297 101.061 46.6643H107.808C106.151 55.6248 99.7455 60.7036 90.524 60.7036Z" fill="#808080"/>
<path d="M127.363 29.6174C134.541 29.6174 137.458 34.2543 137.458 41.3209V59.9865H130.889V42.9291C130.889 38.8945 130.291 34.9749 125.264 34.9749C120.237 34.9749 118.357 38.8389 118.357 44.1927V59.9865H111.792V19.954H118.357V34.4213C120.074 31.3267 123.231 29.6174 127.363 29.6174Z" fill="#808080"/>
<path d="M169.654 30.2793V59.9869H163.085V56.0673C161.317 58.9913 158.211 60.7041 154.25 60.7041C146.793 60.7041 141.328 54.6852 141.328 45.1331C141.328 35.581 146.793 29.618 154.25 29.618C158.225 29.618 161.317 31.3273 163.085 34.2548V30.2793H169.654ZM148.176 45.1331C148.176 51.4269 150.88 55.3467 155.684 55.3467C159.99 55.3467 163.343 51.9804 163.343 45.1331C163.343 38.2859 159.99 34.9754 155.684 34.9754C150.88 34.9754 148.176 38.8393 148.176 45.1331Z" fill="#808080"/>
<path d="M202.673 29.6768C209.851 29.6768 212.769 34.3135 212.769 41.3801V60.0387H206.206V42.9813C206.206 38.9502 205.601 35.0306 200.574 35.0306C195.547 35.0306 193.671 38.8946 193.671 44.2486V60.0387H187.102V30.3381H193.671V34.4806C195.385 31.3893 198.531 29.6768 202.673 29.6768Z" fill="#808080"/>
<path d="M228.891 34.7C226.019 34.7 223.37 35.9706 223.37 37.9583C223.37 39.9458 224.804 40.9938 227.345 41.4916L231.543 42.32C237.559 43.4791 242.143 45.3555 242.143 51.155C242.143 57.3408 236.292 60.7628 229.552 60.7628C222.267 60.7628 217.406 56.6204 216.689 50.9878H223.094C223.702 54.0268 225.911 55.7952 229.775 55.7952C233.197 55.7952 235.739 54.3576 235.739 51.9278C235.739 49.4979 233.532 48.3945 230.604 47.841L226.131 46.9602C221.107 45.9646 217.185 43.7019 217.185 38.2889C217.185 33.0429 222.817 29.6768 229.278 29.6768C235.076 29.6768 240.375 32.4929 241.59 38.4559H235.408C234.691 35.7512 232.206 34.7 228.891 34.7Z" fill="#808080"/>
<path d="M254.983 22.4988V30.3382H260.947V35.0864H254.983V51.2664C254.983 54.3019 255.7 55.0191 258.516 55.0191H260.891V60.0388H256.018C249.668 60.0388 248.398 58.3261 248.398 52.2516V35.0864H243.994V30.3382H248.412V22.4988H254.983Z" fill="#808080"/>
<path d="M292.579 30.3381V60.0387H286.006V56.126C284.242 59.05 281.133 60.7628 277.172 60.7628C269.72 60.7628 264.25 54.744 264.25 45.1918C264.25 35.6397 269.72 29.6768 277.172 29.6768C281.147 29.6768 284.242 31.3893 286.006 34.3135V30.3381H292.579ZM271.102 45.1918C271.102 51.4856 273.806 55.4054 278.61 55.4054C282.916 55.4054 286.268 52.0391 286.268 45.1918C286.268 38.3446 282.902 35.0341 278.61 35.0341C273.806 35.0341 271.102 38.898 271.102 45.1918Z" fill="#808080"/>
<path d="M318.362 40.4997C317.823 37.3492 315.038 35.1423 311.46 35.1423C307.377 35.1423 303.676 38.1813 303.676 45.1921C303.676 52.2588 307.427 55.2873 311.296 55.2873C314.494 55.2873 317.753 53.8496 318.582 49.8742H324.987C323.665 56.8364 317.533 60.7525 311.184 60.7525C302.568 60.7525 296.883 54.0724 296.883 45.2374C296.883 36.4024 302.624 29.6665 311.46 29.6665C317.921 29.6665 323.665 33.8438 324.768 40.4892L318.362 40.4997Z" fill="#808080"/>
<path d="M335.436 42.2649L346.423 30.3388H354.318L342.946 42.5434L355.589 60.0394H347.931L338.601 47.1593L335.467 50.529V60.0394H328.865V20.0068H335.436V42.2649Z" fill="#808080"/>
<path d="M181.782 59.9866H175.209V30.2791H181.782V59.9866Z" fill="#808080"/>
<path d="M178.497 28.177C180.966 28.177 182.967 26.1758 182.967 23.7073C182.967 21.2387 180.966 19.2375 178.497 19.2375C176.028 19.2375 174.027 21.2387 174.027 23.7073C174.027 26.1758 176.028 28.177 178.497 28.177Z" fill="#808080"/>
<path d="M39.9977 51.9978H12.7686C11.8199 51.9995 10.8802 51.8142 10.0033 51.4522C9.12634 51.0903 8.32949 50.5588 7.65839 49.8881L2.08867 44.3184C0.747318 42.966 -0.00367984 41.1374 1.45441e-05 39.2325V24.7686C-0.001891 23.8199 0.183468 22.8802 0.545467 22.0033C0.907464 21.1264 1.43898 20.3295 2.10956 19.6584L7.67928 14.0887C9.03295 12.7471 10.8628 11.9962 12.7686 12H39.9977V20.0065H15.2019C13.2941 20.0083 11.465 20.767 10.116 22.116C8.76702 23.465 8.00833 25.2941 8.0065 27.2019V36.7959C8.0065 38.7047 8.76435 40.5356 10.1136 41.8861C11.4628 43.2366 13.2929 43.9963 15.2019 43.9982H39.9977V51.9978Z" fill="#808080"/>
<path d="M16.0137 28.0128H43.2461C45.1485 28.011 46.9743 28.7618 48.3252 30.1015L53.8948 35.6712C55.2455 37.0218 56.0043 38.8539 56.0043 40.764V55.228C56.0043 57.1381 55.2455 58.9701 53.8948 60.3208L48.3252 65.8905C46.9743 67.2412 45.1424 68 43.2323 68H16.0137V59.9935H40.8095C42.7195 59.9935 44.5516 59.2347 45.9023 57.884C47.253 56.5333 48.0118 54.7014 48.0118 52.7912V43.2008C48.0118 41.2906 47.253 39.4587 45.9023 38.108C44.5516 36.7573 42.7195 35.9985 40.8095 35.9985H16.0137V28.0128Z" fill="#808080"/>
</g>
<defs>
<clipPath id="clip0_5_51">
<rect width="356" height="80" fill="white"/>
</clipPath>
</defs>
</svg>
