<svg width="299" height="80" viewBox="0 0 299 80" fill="none" xmlns="http://www.w3.org/2000/svg">
<path d="M29.8256 58.9521C29.2251 59.009 28.616 59.04 28 59.04C17.4849 59.04 8.96 50.5151 8.96 40C8.96 29.4849 17.4849 20.96 28 20.96C30.0108 20.96 31.9493 21.2727 33.7689 21.8508C33.8791 21.7509 33.9894 21.6527 34.1005 21.5545C34.0644 21.6768 34.029 21.8009 33.9937 21.9241C41.5718 24.4354 47.04 31.5793 47.04 40C47.04 44.2405 45.6529 48.1562 43.3095 51.3206C45.634 53.2065 48.2668 54.7271 51.1211 55.7954C54.1985 51.2991 56 45.8602 56 40C56 24.5362 43.4637 12 28 12C12.5362 12 0 24.5362 0 40C0 55.4638 12.5362 68 28 68C31.385 68 34.6295 67.3995 37.6337 66.2985C34.583 64.3721 31.9295 61.8736 29.8256 58.9521Z" fill="#808080"/>
<path d="M53.1043 21.0479C53.7048 20.991 54.3139 20.96 54.9299 20.96C65.445 20.96 73.9699 29.4849 73.9699 40C73.9699 50.5151 65.445 59.04 54.9299 59.04C52.9191 59.04 50.9806 58.7273 49.1611 58.1492C49.0508 58.2491 48.9405 58.3473 48.8294 58.4455C48.8656 58.3232 48.9009 58.1991 48.9362 58.0759C41.3581 55.5646 35.8899 48.4207 35.8899 40C35.8899 35.7595 37.277 31.8438 39.6204 28.6794C37.296 26.7935 34.6631 25.2729 31.8088 24.2046C28.7314 28.7009 26.9299 34.1398 26.9299 40C26.9299 55.4638 39.4662 68 54.9299 68C70.3937 68 82.9299 55.4638 82.9299 40C82.9299 24.5362 70.3937 12 54.9299 12C51.5449 12 48.3004 12.6005 45.2962 13.7015C48.3469 15.6279 51.0004 18.1264 53.1043 21.0479Z" fill="#808080"/>
<path d="M282.672 57.4608V60.9811H279.022V57.4936C255.864 53.9535 260.011 20.7662 282.676 22.7271C303.228 24.8645 303.286 54.9788 282.672 57.4617V57.4608ZM282.716 50.5625C282.716 51.4525 282.705 52.264 282.72 53.0765C282.729 53.5538 282.941 53.708 283.399 53.5856C290.821 51.972 296.127 44.5903 294.17 36.9623C290.401 21.2039 267.519 23.9401 266.955 40C267.059 46.5719 271.846 52.3726 278.356 53.5934C278.798 53.6796 278.97 53.5417 278.979 53.0213C278.993 52.2141 278.983 51.406 278.983 50.5634H282.716V50.5625Z" fill="#808080"/>
<path d="M242.423 57.3377L238.638 57.3429C238.638 57.3429 231.424 37.6765 227.981 27.9636C224.261 37.7601 217.172 57.3377 217.172 57.3377L213.706 57.2877L226.114 22.8202L229.983 22.8081L242.422 57.3377H242.423Z" fill="#808080"/>
<path d="M122.328 49.564C123.211 50.4712 124.037 51.3198 124.942 52.2494C118.916 58.8885 107.433 59.0677 100.934 52.9774C91.7324 45.1133 93.9112 29.3627 104.972 24.3726C108.932 22.1835 113.373 22.8064 117.77 22.7228C117.994 23.8376 117.833 24.9404 117.885 26.1698C113.416 26.1104 108.882 25.9897 105.041 28.5925C96.2313 34.4569 96.9128 47.0716 106.102 52.1857C111.3 54.9874 118.356 54.0906 122.328 49.564Z" fill="#808080"/>
<path d="M133.392 57.3428H129.996V22.8778L133.346 22.7761V38.4561C135.351 37.3353 137.093 35.9758 139.443 36.0438C140.113 36.0455 140.787 36.0843 141.453 36.0343C145.928 35.918 149.984 39.4865 151.109 43.69C151.343 44.6583 151.598 45.6508 151.616 46.6373C151.627 50.1989 151.574 57.3178 151.574 57.3178H147.918C147.918 57.3178 147.918 50.3609 147.914 46.882C147.984 43.7081 145.761 40.5583 142.654 39.8079C138.705 38.5681 134.768 41.0942 133.73 44.9435C133.027 49.0393 133.391 57.3428 133.391 57.3428H133.392Z" fill="#808080"/>
<path d="M178.239 35.9724V57.2826C174.162 57.3997 170.093 57.3101 166.014 57.3093C164.251 57.2929 162.702 56.6045 161.249 55.6293C158.741 53.8459 156.707 51.008 156.584 47.8642C156.166 43.3429 158.015 39.5237 161.903 37.2337C163.341 36.3222 164.935 35.9379 166.661 35.9578C170.475 36.0026 174.29 35.9715 178.239 35.9715L178.239 35.9724ZM174.489 53.8769V39.4134C171.052 39.5935 167.618 38.8637 164.373 40.0285C161.16 41.5586 159.114 45.5079 160.489 48.8851C162.542 55.1011 169.269 53.8226 174.489 53.8769Z" fill="#808080"/>
<path d="M195.051 57.3429H191.585C191.587 52.7552 191.585 48.1968 191.599 43.6125C191.698 40.1793 194.502 36.9821 197.813 36.2541C198.951 36.0258 200.152 36.1111 201.324 36.0491C204.861 36.205 207.77 39.0395 208.699 42.4141C209.356 47.3481 208.797 52.3528 208.972 57.3308H205.239C205.239 53.0679 205.244 48.8179 205.238 44.5568C205.233 41.5078 202.758 39.4392 199.957 39.4944C197.006 39.5641 194.899 42.5304 195.046 45.3382C195.061 49.2944 195.051 53.2505 195.051 57.3411V57.3429Z" fill="#808080"/>
<path d="M186.308 57.3428H182.976V36.1395C184.031 35.9258 185.138 36.0904 186.308 36.037V57.3428Z" fill="#808080"/>
<path d="M186.539 28.912C186.568 31.2942 182.998 31.3372 182.922 29.0016C182.833 26.5238 186.535 26.4609 186.539 28.912Z" fill="#808080"/>
<path d="M248.011 57.3428C248.009 54.2387 248.016 51.1345 248.019 48.0304C248.022 44.8022 248.498 41.9764 250.721 39.5038C252.761 37.2345 255.715 35.7294 258.82 36.1248V39.3065C254.964 39.0894 252.143 41.9264 251.733 45.787C251.247 49.6622 251.586 53.4469 251.477 57.3428C250.354 57.3428 249.289 57.3428 248.011 57.3428Z" fill="#808080"/>
</svg>
